<svg width="60" height="61" viewBox="0 0 60 61" fill="none" xmlns="http://www.w3.org/2000/svg">
<rect y="0.5" width="60" height="60" rx="30" fill="#4E40C4"/>
<path fill-rule="evenodd" clip-rule="evenodd" d="M30 43.8333C22.6362 43.8333 16.6667 37.8638 16.6667 30.5C16.6667 23.1362 22.6362 17.1667 30 17.1667C33.5362 17.1667 36.9276 18.5714 39.4281 21.0719C41.9286 23.5724 43.3333 26.9638 43.3333 30.5C43.3333 37.8638 37.3638 43.8333 30 43.8333ZM38 30.5C38 31.2364 37.4031 31.8333 36.6667 31.8333H31.3333V37.1667C31.3333 37.9031 30.7364 38.5 30 38.5C29.2636 38.5 28.6667 37.9031 28.6667 37.1667V31.8333H23.3333C22.597 31.8333 22 31.2364 22 30.5C22 29.7636 22.597 29.1667 23.3333 29.1667H28.6667V23.8333C28.6667 23.097 29.2636 22.5 30 22.5C30.7364 22.5 31.3333 23.097 31.3333 23.8333V29.1667H36.6667C37.4031 29.1667 38 29.7636 38 30.5ZM30 19.8333C35.891 19.8333 40.6667 24.609 40.6667 30.5C40.6667 33.329 39.5429 36.0421 37.5425 38.0425C35.5421 40.0429 32.829 41.1667 30 41.1667C24.109 41.1667 19.3333 36.391 19.3333 30.5C19.3333 24.609 24.109 19.8333 30 19.8333Z" fill="white"/>
</svg>
