<svg width="48" height="48" viewBox="0 0 48 48" fill="none" xmlns="http://www.w3.org/2000/svg">
<rect width="48" height="48" rx="24" fill="#4E40C4" fill-opacity="0.05"/>
<path fill-rule="evenodd" clip-rule="evenodd" d="M33.536 29.3333H32.5333V21.8667C32.5333 17.1538 28.7128 13.3333 24 13.3333C19.2872 13.3333 15.4667 17.1538 15.4667 21.8667V29.3333H14.5173C13.9282 29.3333 13.4507 29.8109 13.4507 30.4C13.4507 30.9891 13.9282 31.4667 14.5173 31.4667H20.8C20.8 33.234 22.2327 34.6667 24 34.6667C25.7673 34.6667 27.2 33.234 27.2 31.4667H33.536C34.1251 31.4667 34.6027 30.9891 34.6027 30.4C34.6027 29.8109 34.1251 29.3333 33.536 29.3333ZM24 32.5333C23.4109 32.5333 22.9333 32.0558 22.9333 31.4667H25.0667C25.0667 32.0558 24.5891 32.5333 24 32.5333ZM17.6 29.3333H26.1333H30.4V21.8667C30.4 18.3321 27.5346 15.4667 24 15.4667C20.4654 15.4667 17.6 18.3321 17.6 21.8667V29.3333Z" fill="#4E40C4"/>
<circle cx="30" cy="18" r="4" fill="#D80027"/>
</svg>
